<svg width="17" height="12" viewBox="0 0 17 12" fill="none" xmlns="http://www.w3.org/2000/svg">
<path d="M15.2132 0.244141H2.19236C1.36387 0.244141 0.689941 0.876759 0.689941 1.65445V10.1163C0.689941 10.894 1.36387 11.5266 2.19236 11.5266H15.2132C16.0416 11.5266 16.7156 10.894 16.7156 10.1163V1.65445C16.7156 0.876759 16.0416 0.244141 15.2132 0.244141ZM15.2132 1.18434C15.2812 1.18434 15.3459 1.19759 15.4051 1.22073L8.70276 6.6736L2.00037 1.22073C2.05955 1.19762 2.12428 1.18434 2.19232 1.18434H15.2132ZM15.2132 10.5863H2.19236C1.91604 10.5863 1.69154 10.3756 1.69154 10.1162V2.21406L8.37459 7.65098C8.46899 7.72763 8.58588 7.76575 8.70276 7.76575C8.81964 7.76575 8.93652 7.72766 9.03093 7.65098L15.714 2.21406V10.1163C15.7139 10.3756 15.4895 10.5863 15.2132 10.5863Z" fill="#2196F3"/>
</svg>
