<svg width="12" height="16" viewBox="0 0 12 16" fill="none" xmlns="http://www.w3.org/2000/svg">
<path d="M9.51056 0.237061H2.49945C1.67099 0.237061 0.99707 0.869675 0.99707 1.64736V13.87C0.99707 14.6477 1.67099 15.2803 2.49945 15.2803H9.51056C10.339 15.2803 11.0129 14.6477 11.0129 13.87V1.64736C11.0129 0.869675 10.339 0.237061 9.51056 0.237061ZM2.49945 1.17726H9.51056C9.78688 1.17726 10.0114 1.38798 10.0114 1.64736V11.5195H1.99866V1.64736C1.99866 1.38798 2.22313 1.17726 2.49945 1.17726ZM9.51056 14.3401H2.49945C2.22313 14.3401 1.99866 14.1294 1.99866 13.87V12.4597H10.0114V13.87C10.0114 14.1294 9.78688 14.3401 9.51056 14.3401Z" fill="#757575"/>
<path d="M3.35442 13.0675C3.54999 13.2512 3.54999 13.5489 3.35442 13.7326C3.15884 13.9162 2.84177 13.9162 2.64619 13.7326C2.45062 13.5489 2.45062 13.2512 2.64619 13.0675C2.84177 12.8839 3.15884 12.8839 3.35442 13.0675Z" fill="#757575"/>
</svg>
